<?xml version="1.0" standalone="no"?>
<!DOCTYPE svg PUBLIC "-//W3C//DTD SVG 20010904//EN" "http://www.w3.org/TR/2001/REC-SVG-20010904/DTD/svg10.dtd">
<svg version="1.0" xmlns="http://www.w3.org/2000/svg" width="1219.000000pt" height="1086.000000pt"
  viewBox="0 0 1219.000000 1086.000000" preserveAspectRatio="xMidYMid meet">

  <defs>
    <linearGradient id="myGradient">
      <stop offset="0%" stop-color="#aa10c4" />
      <stop offset="100%" stop-color="#1400f2" />
    </linearGradient>
  </defs>

  <g transform="translate(0.000000,1086.000000) scale(0.100000,-0.100000)" fill="url(#myGradient)" stroke="none">
    <path d="M6375 9264 c-22 -2 -105 -9 -185 -15 -825 -61 -1648 -316 -2329 -722
-1002 -596 -1673 -1476 -1877 -2462 -63 -304 -82 -685 -49 -983 92 -818 489
-1578 1140 -2182 88 -81 135 -132 135 -145 0 -41 -31 -273 -51 -380 -50 -268
-122 -498 -223 -710 -115 -240 -226 -396 -403 -565 -128 -124 -234 -197 -418
-291 -166 -84 -195 -111 -195 -181 0 -79 47 -141 117 -154 90 -17 714 144
1133 293 691 245 1375 604 1837 964 35 27 72 49 84 49 12 0 52 -9 88 -20 92
-27 320 -77 482 -105 563 -100 1190 -112 1767 -35 840 112 1602 396 2267 843
331 223 680 538 916 828 429 527 683 1104 766 1742 21 163 24 570 5 732 -122
1039 -733 1975 -1717 2632 -721 481 -1554 763 -2520 854 -111 10 -696 20 -770
13z m580 -304 c1087 -60 2090 -423 2852 -1034 742 -595 1185 -1351 1284 -2191
16 -138 17 -498 0 -630 -98 -802 -496 -1515 -1166 -2094 -687 -594 -1607 -984
-2595 -1100 -730 -86 -1400 -38 -2111 150 -116 31 -166 40 -192 35 -24 -5 -86
-44 -183 -117 -539 -406 -1145 -718 -1882 -969 -51 -17 -99 -30 -107 -28 -9 2
10 31 52 83 103 124 197 275 283 450 169 347 267 726 310 1208 15 168 12 176
-108 284 -701 630 -1083 1323 -1167 2118 -82 774 161 1550 691 2211 224 279
523 554 845 777 235 163 608 362 889 475 712 287 1508 415 2305 372z" />
  </g>
</svg>
