<svg width="579" height="503" viewBox="0 0 579 503" fill="none" xmlns="http://www.w3.org/2000/svg">
<path d="M272.278 0.133781C270.934 0.248183 265.863 0.648589 260.974 0.991794C210.563 4.48104 160.275 19.0673 118.663 42.2908C57.4362 76.3825 16.4353 126.719 3.97007 183.119C0.120507 200.508 -1.04047 222.302 0.975965 239.348C6.59755 286.138 30.8559 329.611 70.6347 364.16C76.0119 368.793 78.8838 371.71 78.8838 372.454C78.8838 374.799 76.9896 388.07 75.7675 394.19C72.7123 409.52 68.3128 422.676 62.1412 434.803C55.1143 448.531 48.3317 457.454 37.5163 467.121C29.6949 474.214 23.2179 478.39 11.9747 483.767C1.83142 488.572 0.0594028 490.116 0.0594028 494.12C0.0594028 498.639 2.9313 502.186 7.20859 502.929C12.708 503.902 50.837 494.692 76.4396 486.169C118.663 472.155 160.458 451.62 188.688 431.028C190.827 429.483 193.087 428.225 193.821 428.225C194.554 428.225 196.998 428.74 199.198 429.369C204.819 430.913 218.751 433.773 228.65 435.375C263.052 441.095 301.364 441.781 336.621 437.377C387.949 430.97 434.51 414.725 475.144 389.157C495.37 376.401 516.695 358.383 531.116 341.794C557.329 311.65 572.85 278.645 577.921 242.151C579.205 232.827 579.388 209.546 578.227 200.279C570.772 140.848 533.438 87.3079 473.311 49.7269C429.255 22.2133 378.355 6.08267 319.329 0.877392C312.546 0.305384 276.8 -0.266625 272.278 0.133781ZM307.719 17.5228C374.139 20.9549 435.427 41.7188 481.988 76.6685C527.327 110.703 554.396 153.947 560.446 201.996C561.423 209.889 561.484 230.482 560.446 238.032C554.457 283.907 530.138 324.691 489.198 357.811C447.22 391.788 391.004 414.096 330.633 420.732C286.027 425.651 245.087 422.905 201.642 412.151C194.554 410.378 191.499 409.863 189.91 410.149C188.444 410.435 184.655 412.666 178.728 416.842C145.793 440.065 108.764 457.912 63.7299 472.269C60.6136 473.242 57.6806 473.985 57.1918 473.871C56.6419 473.757 57.8028 472.098 60.3692 469.123C66.6629 462.031 72.4067 453.393 77.6617 443.383C87.9883 423.534 93.9765 401.855 96.604 374.284C97.5206 364.675 97.3372 364.217 90.0047 358.039C47.1707 322.003 23.8289 282.363 18.6962 236.888C13.6856 192.615 28.5339 148.227 60.9192 110.417C74.6065 94.458 92.8766 78.7277 112.552 65.9719C126.912 56.6482 149.704 45.2652 166.874 38.8015C210.38 22.3849 259.019 15.0632 307.719 17.5228Z" fill="url(#paint0_linear_2_3)"/>
<path d="M218.526 160.141C218.3 158.032 217.351 156.39 215.676 155.214C214.018 154.039 211.861 153.452 209.205 153.452C207.337 153.452 205.736 153.733 204.399 154.297C203.063 154.86 202.041 155.625 201.333 156.591C200.624 157.557 200.262 158.66 200.246 159.899C200.246 160.929 200.479 161.823 200.946 162.58C201.429 163.336 202.081 163.98 202.902 164.511C203.723 165.027 204.633 165.461 205.631 165.815C206.629 166.17 207.635 166.467 208.649 166.709L213.286 167.868C215.153 168.303 216.948 168.89 218.671 169.631C220.409 170.371 221.963 171.305 223.331 172.432C224.716 173.559 225.81 174.919 226.615 176.513C227.42 178.107 227.823 179.974 227.823 182.115C227.823 185.013 227.082 187.564 225.601 189.77C224.12 191.959 221.979 193.674 219.178 194.913C216.393 196.137 213.02 196.749 209.06 196.749C205.212 196.749 201.872 196.153 199.039 194.962C196.221 193.77 194.016 192.032 192.422 189.746C190.844 187.46 189.991 184.675 189.862 181.391H198.676C198.805 183.113 199.336 184.546 200.27 185.689C201.204 186.832 202.419 187.685 203.916 188.249C205.43 188.812 207.12 189.094 208.987 189.094C210.935 189.094 212.642 188.804 214.107 188.224C215.588 187.629 216.747 186.808 217.584 185.761C218.421 184.699 218.848 183.459 218.864 182.043C218.848 180.755 218.469 179.692 217.729 178.855C216.988 178.002 215.95 177.294 214.614 176.73C213.294 176.151 211.748 175.635 209.977 175.185L204.351 173.736C200.278 172.689 197.058 171.104 194.692 168.979C192.342 166.838 191.166 163.996 191.166 160.455C191.166 157.541 191.955 154.989 193.533 152.8C195.127 150.61 197.292 148.912 200.029 147.705C202.765 146.481 205.864 145.869 209.325 145.869C212.835 145.869 215.91 146.481 218.55 147.705C221.206 148.912 223.291 150.594 224.804 152.751C226.317 154.893 227.098 157.356 227.146 160.141H218.526ZM235.423 196V158.909H244.165V196H235.423ZM239.818 153.645C238.434 153.645 237.242 153.186 236.244 152.268C235.246 151.335 234.747 150.216 234.747 148.912C234.747 147.592 235.246 146.473 236.244 145.555C237.242 144.622 238.434 144.155 239.818 144.155C241.219 144.155 242.41 144.622 243.392 145.555C244.39 146.473 244.889 147.592 244.889 148.912C244.889 150.216 244.39 151.335 243.392 152.268C242.41 153.186 241.219 153.645 239.818 153.645ZM253.154 196V158.909H261.509V165.212H261.943C262.716 163.087 263.996 161.429 265.783 160.237C267.57 159.03 269.703 158.426 272.182 158.426C274.693 158.426 276.81 159.038 278.533 160.261C280.271 161.469 281.495 163.119 282.203 165.212H282.59C283.411 163.151 284.795 161.509 286.743 160.286C288.707 159.046 291.033 158.426 293.722 158.426C297.135 158.426 299.92 159.505 302.077 161.662C304.234 163.819 305.313 166.966 305.313 171.104V196H296.547V172.456C296.547 170.154 295.935 168.472 294.712 167.409C293.488 166.33 291.991 165.791 290.22 165.791C288.111 165.791 286.461 166.451 285.27 167.771C284.095 169.075 283.507 170.774 283.507 172.866V196H274.935V172.094C274.935 170.178 274.355 168.649 273.196 167.506C272.053 166.363 270.556 165.791 268.705 165.791C267.449 165.791 266.306 166.113 265.276 166.757C264.245 167.385 263.424 168.278 262.813 169.438C262.201 170.58 261.895 171.917 261.895 173.446V196H253.154ZM314.181 209.909V158.909H322.778V165.043H323.285C323.735 164.141 324.371 163.183 325.192 162.169C326.013 161.139 327.124 160.261 328.525 159.537C329.925 158.796 331.712 158.426 333.885 158.426C336.751 158.426 339.335 159.159 341.637 160.624C343.955 162.072 345.79 164.222 347.143 167.071C348.511 169.904 349.195 173.382 349.195 177.503C349.195 181.576 348.527 185.037 347.191 187.886C345.855 190.736 344.036 192.909 341.733 194.406C339.431 195.903 336.823 196.652 333.91 196.652C331.785 196.652 330.022 196.298 328.621 195.589C327.221 194.881 326.094 194.028 325.241 193.03C324.403 192.016 323.751 191.058 323.285 190.156H322.922V209.909H314.181ZM322.753 177.455C322.753 179.853 323.091 181.954 323.768 183.757C324.46 185.56 325.45 186.969 326.738 187.983C328.042 188.981 329.619 189.48 331.471 189.48C333.403 189.48 335.02 188.965 336.324 187.935C337.628 186.888 338.61 185.464 339.27 183.661C339.947 181.841 340.285 179.773 340.285 177.455C340.285 175.152 339.955 173.108 339.295 171.321C338.635 169.534 337.653 168.134 336.349 167.119C335.045 166.105 333.419 165.598 331.471 165.598C329.603 165.598 328.018 166.089 326.714 167.071C325.41 168.053 324.42 169.429 323.743 171.2C323.083 172.971 322.753 175.056 322.753 177.455ZM365.422 146.545V196H356.681V146.545H365.422ZM390.832 196.724C387.113 196.724 383.901 195.952 381.197 194.406C378.508 192.845 376.44 190.639 374.991 187.79C373.542 184.924 372.818 181.552 372.818 177.672C372.818 173.857 373.542 170.508 374.991 167.626C376.456 164.729 378.5 162.475 381.124 160.865C383.749 159.239 386.831 158.426 390.373 158.426C392.659 158.426 394.816 158.796 396.845 159.537C398.889 160.261 400.692 161.388 402.254 162.918C403.831 164.447 405.071 166.395 405.972 168.761C406.874 171.112 407.325 173.913 407.325 177.165V179.845H376.923V173.953H398.945C398.929 172.279 398.567 170.79 397.859 169.486C397.151 168.166 396.16 167.127 394.889 166.371C393.633 165.614 392.168 165.236 390.494 165.236C388.707 165.236 387.137 165.67 385.785 166.54C384.433 167.393 383.378 168.52 382.622 169.92C381.881 171.305 381.503 172.826 381.487 174.484V179.628C381.487 181.785 381.881 183.636 382.67 185.182C383.459 186.711 384.561 187.886 385.978 188.707C387.395 189.512 389.053 189.915 390.953 189.915C392.224 189.915 393.375 189.738 394.406 189.384C395.436 189.013 396.329 188.474 397.086 187.766C397.843 187.057 398.414 186.18 398.801 185.134L406.963 186.051C406.447 188.208 405.465 190.092 404.017 191.702C402.584 193.295 400.749 194.535 398.511 195.42C396.273 196.29 393.713 196.724 390.832 196.724ZM119.333 228.545H130.296L144.978 264.381H145.557L160.239 228.545H171.202V278H162.606V244.024H162.147L148.479 277.855H142.056L128.388 243.952H127.93V278H119.333V228.545ZM196.992 278.724C193.273 278.724 190.062 277.952 187.357 276.406C184.669 274.845 182.6 272.639 181.151 269.79C179.702 266.924 178.978 263.552 178.978 259.672C178.978 255.857 179.702 252.508 181.151 249.626C182.616 246.729 184.661 244.475 187.285 242.865C189.909 241.239 192.992 240.426 196.533 240.426C198.819 240.426 200.976 240.796 203.005 241.537C205.049 242.261 206.852 243.388 208.414 244.918C209.992 246.447 211.231 248.395 212.133 250.761C213.034 253.112 213.485 255.913 213.485 259.165V261.845H183.083V255.953H205.106C205.09 254.279 204.727 252.79 204.019 251.486C203.311 250.166 202.321 249.127 201.049 248.371C199.793 247.614 198.328 247.236 196.654 247.236C194.867 247.236 193.297 247.67 191.945 248.54C190.593 249.393 189.538 250.52 188.782 251.92C188.041 253.305 187.663 254.826 187.647 256.484V261.628C187.647 263.785 188.041 265.636 188.83 267.182C189.619 268.711 190.722 269.886 192.138 270.707C193.555 271.512 195.213 271.915 197.113 271.915C198.385 271.915 199.536 271.738 200.566 271.384C201.596 271.013 202.49 270.474 203.246 269.766C204.003 269.057 204.574 268.18 204.961 267.134L213.123 268.051C212.608 270.208 211.626 272.092 210.177 273.702C208.744 275.295 206.909 276.535 204.671 277.42C202.433 278.29 199.874 278.724 196.992 278.724ZM250.195 250.713L242.227 251.582C242.001 250.777 241.607 250.021 241.044 249.312C240.496 248.604 239.756 248.033 238.822 247.598C237.888 247.163 236.745 246.946 235.393 246.946C233.574 246.946 232.044 247.34 230.805 248.129C229.581 248.918 228.978 249.94 228.994 251.196C228.978 252.275 229.372 253.152 230.177 253.828C230.998 254.504 232.35 255.06 234.234 255.494L240.561 256.847C244.07 257.603 246.678 258.803 248.384 260.445C250.107 262.087 250.976 264.236 250.992 266.892C250.976 269.226 250.292 271.287 248.94 273.074C247.604 274.845 245.744 276.229 243.362 277.227C240.979 278.225 238.242 278.724 235.151 278.724C230.612 278.724 226.957 277.775 224.188 275.875C221.419 273.959 219.769 271.295 219.238 267.882L227.762 267.061C228.149 268.735 228.97 269.999 230.225 270.852C231.481 271.705 233.115 272.132 235.127 272.132C237.204 272.132 238.87 271.705 240.126 270.852C241.398 269.999 242.034 268.945 242.034 267.689C242.034 266.626 241.623 265.749 240.802 265.057C239.997 264.365 238.741 263.833 237.035 263.463L230.708 262.135C227.151 261.394 224.518 260.147 222.812 258.392C221.106 256.621 220.26 254.384 220.276 251.679C220.26 249.393 220.88 247.413 222.136 245.739C223.408 244.048 225.17 242.744 227.424 241.827C229.694 240.893 232.31 240.426 235.272 240.426C239.619 240.426 243.04 241.352 245.535 243.203C248.046 245.054 249.6 247.558 250.195 250.713ZM287.516 250.713L279.547 251.582C279.322 250.777 278.927 250.021 278.364 249.312C277.816 248.604 277.076 248.033 276.142 247.598C275.209 247.163 274.066 246.946 272.713 246.946C270.894 246.946 269.365 247.34 268.125 248.129C266.902 248.918 266.298 249.94 266.314 251.196C266.298 252.275 266.692 253.152 267.497 253.828C268.318 254.504 269.671 255.06 271.554 255.494L277.881 256.847C281.39 257.603 283.998 258.803 285.705 260.445C287.427 262.087 288.297 264.236 288.313 266.892C288.297 269.226 287.612 271.287 286.26 273.074C284.924 274.845 283.065 276.229 280.682 277.227C278.299 278.225 275.563 278.724 272.472 278.724C267.932 278.724 264.278 277.775 261.509 275.875C258.74 273.959 257.09 271.295 256.558 267.882L265.083 267.061C265.469 268.735 266.29 269.999 267.546 270.852C268.801 271.705 270.435 272.132 272.448 272.132C274.524 272.132 276.191 271.705 277.446 270.852C278.718 269.999 279.354 268.945 279.354 267.689C279.354 266.626 278.943 265.749 278.122 265.057C277.317 264.365 276.062 263.833 274.355 263.463L268.029 262.135C264.471 261.394 261.839 260.147 260.132 258.392C258.426 256.621 257.581 254.384 257.597 251.679C257.581 249.393 258.2 247.413 259.456 245.739C260.728 244.048 262.491 242.744 264.744 241.827C267.014 240.893 269.63 240.426 272.593 240.426C276.939 240.426 280.36 241.352 282.855 243.203C285.367 245.054 286.92 247.558 287.516 250.713ZM311.941 278.724C308.222 278.724 305.011 277.952 302.306 276.406C299.618 274.845 297.549 272.639 296.1 269.79C294.651 266.924 293.927 263.552 293.927 259.672C293.927 255.857 294.651 252.508 296.1 249.626C297.565 246.729 299.61 244.475 302.234 242.865C304.858 241.239 307.941 240.426 311.482 240.426C313.768 240.426 315.926 240.796 317.954 241.537C319.999 242.261 321.802 243.388 323.363 244.918C324.941 246.447 326.18 248.395 327.082 250.761C327.983 253.112 328.434 255.913 328.434 259.165V261.845H298.032V255.953H320.055C320.039 254.279 319.677 252.79 318.968 251.486C318.26 250.166 317.27 249.127 315.998 248.371C314.742 247.614 313.277 247.236 311.603 247.236C309.816 247.236 308.247 247.67 306.894 248.54C305.542 249.393 304.488 250.52 303.731 251.92C302.99 253.305 302.612 254.826 302.596 256.484V261.628C302.596 263.785 302.99 265.636 303.779 267.182C304.568 268.711 305.671 269.886 307.088 270.707C308.504 271.512 310.162 271.915 312.062 271.915C313.334 271.915 314.485 271.738 315.515 271.384C316.545 271.013 317.439 270.474 318.195 269.766C318.952 269.057 319.524 268.18 319.91 267.134L328.072 268.051C327.557 270.208 326.575 272.092 325.126 273.702C323.693 275.295 321.858 276.535 319.62 277.42C317.383 278.29 314.823 278.724 311.941 278.724ZM344.571 256.267V278H335.829V240.909H344.184V247.212H344.619C345.472 245.135 346.833 243.485 348.7 242.261C350.584 241.038 352.91 240.426 355.679 240.426C358.238 240.426 360.468 240.973 362.368 242.068C364.283 243.163 365.765 244.749 366.811 246.825C367.873 248.902 368.397 251.421 368.381 254.384V278H359.639V255.736C359.639 253.257 358.995 251.317 357.707 249.916C356.435 248.516 354.673 247.815 352.419 247.815C350.89 247.815 349.529 248.153 348.338 248.83C347.163 249.49 346.237 250.447 345.561 251.703C344.901 252.959 344.571 254.48 344.571 256.267ZM393.398 292.682C390.258 292.682 387.562 292.255 385.308 291.402C383.054 290.565 381.243 289.438 379.875 288.021C378.506 286.605 377.557 285.035 377.025 283.312L384.898 281.405C385.252 282.129 385.767 282.846 386.443 283.554C387.119 284.278 388.029 284.874 389.172 285.341C390.331 285.824 391.788 286.065 393.542 286.065C396.022 286.065 398.074 285.462 399.7 284.254C401.326 283.063 402.139 281.099 402.139 278.362V271.335H401.704C401.254 272.237 400.594 273.162 399.724 274.112C398.871 275.062 397.736 275.859 396.319 276.503C394.919 277.147 393.156 277.469 391.031 277.469C388.182 277.469 385.598 276.801 383.28 275.464C380.978 274.112 379.142 272.1 377.774 269.428C376.422 266.739 375.746 263.375 375.746 259.334C375.746 255.261 376.422 251.824 377.774 249.023C379.142 246.205 380.986 244.072 383.304 242.624C385.622 241.159 388.206 240.426 391.055 240.426C393.229 240.426 395.015 240.796 396.416 241.537C397.833 242.261 398.96 243.139 399.797 244.169C400.634 245.183 401.27 246.141 401.704 247.043H402.187V240.909H410.808V278.604C410.808 281.775 410.051 284.399 408.538 286.476C407.025 288.553 404.956 290.106 402.332 291.136C399.708 292.167 396.73 292.682 393.398 292.682ZM393.47 270.611C395.321 270.611 396.899 270.16 398.203 269.259C399.507 268.357 400.497 267.061 401.173 265.371C401.849 263.68 402.187 261.652 402.187 259.286C402.187 256.951 401.849 254.907 401.173 253.152C400.513 251.397 399.531 250.037 398.227 249.071C396.939 248.089 395.354 247.598 393.47 247.598C391.522 247.598 389.896 248.105 388.592 249.119C387.288 250.134 386.306 251.526 385.646 253.297C384.986 255.052 384.656 257.048 384.656 259.286C384.656 261.555 384.986 263.544 385.646 265.25C386.322 266.94 387.312 268.26 388.616 269.21C389.936 270.144 391.554 270.611 393.47 270.611ZM436.187 278.724C432.469 278.724 429.257 277.952 426.552 276.406C423.864 274.845 421.795 272.639 420.346 269.79C418.898 266.924 418.173 263.552 418.173 259.672C418.173 255.857 418.898 252.508 420.346 249.626C421.811 246.729 423.856 244.475 426.48 242.865C429.104 241.239 432.187 240.426 435.729 240.426C438.015 240.426 440.172 240.796 442.2 241.537C444.245 242.261 446.048 243.388 447.609 244.918C449.187 246.447 450.426 248.395 451.328 250.761C452.229 253.112 452.68 255.913 452.68 259.165V261.845H422.278V255.953H444.301C444.285 254.279 443.923 252.79 443.214 251.486C442.506 250.166 441.516 249.127 440.244 248.371C438.988 247.614 437.523 247.236 435.849 247.236C434.062 247.236 432.493 247.67 431.14 248.54C429.788 249.393 428.734 250.52 427.977 251.92C427.237 253.305 426.858 254.826 426.842 256.484V261.628C426.842 263.785 427.237 265.636 428.025 267.182C428.814 268.711 429.917 269.886 431.334 270.707C432.75 271.512 434.408 271.915 436.308 271.915C437.58 271.915 438.731 271.738 439.761 271.384C440.791 271.013 441.685 270.474 442.442 269.766C443.198 269.057 443.77 268.18 444.156 267.134L452.318 268.051C451.803 270.208 450.821 272.092 449.372 273.702C447.939 275.295 446.104 276.535 443.866 277.42C441.629 278.29 439.069 278.724 436.187 278.724ZM460.075 278V240.909H468.551V247.091H468.938C469.614 244.95 470.773 243.3 472.415 242.141C474.073 240.965 475.965 240.378 478.09 240.378C478.573 240.378 479.112 240.402 479.708 240.45C480.319 240.482 480.826 240.539 481.229 240.619V248.661C480.859 248.532 480.271 248.419 479.466 248.322C478.677 248.21 477.913 248.153 477.172 248.153C475.578 248.153 474.146 248.5 472.874 249.192C471.618 249.868 470.628 250.81 469.904 252.017C469.179 253.224 468.817 254.617 468.817 256.195V278H460.075Z" fill="#1400F2"/>
<defs>
<linearGradient id="paint0_linear_2_3" x1="0" y1="503" x2="579" y2="503" gradientUnits="userSpaceOnUse">
<stop stop-color="#AA10C4"/>
<stop offset="1" stop-color="#1400F2"/>
</linearGradient>
</defs>
</svg>
